<mxfile host="app.diagrams.net" agent="Mozilla/5.0 (Macintosh; Intel Mac OS X 10.15; rv:129.0) Gecko/20100101 Firefox/129.0" version="24.7.7">
  <diagram name="Page-1" id="xFV9YMFOVuZupiVe5vNP">
    <mxGraphModel dx="1882" dy="1223" grid="0" gridSize="10" guides="1" tooltips="1" connect="1" arrows="1" fold="1" page="0" pageScale="1" pageWidth="850" pageHeight="1100" math="0" shadow="0">
      <root>
        <mxCell id="0" />
        <mxCell id="1" parent="0" />
        <mxCell id="hWJkc-l-R1TcZnfPBEh0-1" value="Main" style="rounded=0;whiteSpace=wrap;html=1;" parent="1" vertex="1">
          <mxGeometry x="-65" y="-69" width="120" height="60" as="geometry" />
        </mxCell>
        <mxCell id="hWJkc-l-R1TcZnfPBEh0-2" value="" style="rounded=0;whiteSpace=wrap;html=1;" parent="1" vertex="1">
          <mxGeometry x="246" y="93" width="120" height="60" as="geometry" />
        </mxCell>
        <mxCell id="hWJkc-l-R1TcZnfPBEh0-3" value="Dissassembler" style="rounded=0;whiteSpace=wrap;html=1;" parent="1" vertex="1">
          <mxGeometry x="246" y="-69" width="120" height="60" as="geometry" />
        </mxCell>
        <mxCell id="hWJkc-l-R1TcZnfPBEh0-4" value="" style="endArrow=classic;html=1;rounded=0;fontSize=12;startSize=8;endSize=8;curved=1;exitX=1;exitY=0.5;exitDx=0;exitDy=0;entryX=0;entryY=0.5;entryDx=0;entryDy=0;" parent="1" source="hWJkc-l-R1TcZnfPBEh0-1" target="hWJkc-l-R1TcZnfPBEh0-3" edge="1">
          <mxGeometry width="50" height="50" relative="1" as="geometry">
            <mxPoint x="92" y="-57" as="sourcePoint" />
            <mxPoint x="229" y="-57" as="targetPoint" />
          </mxGeometry>
        </mxCell>
        <mxCell id="hWJkc-l-R1TcZnfPBEh0-5" value="Disassmble" style="edgeLabel;html=1;align=center;verticalAlign=middle;resizable=0;points=[];fontSize=12;" parent="hWJkc-l-R1TcZnfPBEh0-4" vertex="1" connectable="0">
          <mxGeometry x="-0.2471" y="1" relative="1" as="geometry">
            <mxPoint as="offset" />
          </mxGeometry>
        </mxCell>
        <mxCell id="hWJkc-l-R1TcZnfPBEh0-6" value="" style="endArrow=classic;html=1;rounded=0;fontSize=12;startSize=8;endSize=8;curved=1;exitX=0.5;exitY=1;exitDx=0;exitDy=0;" parent="1" source="hWJkc-l-R1TcZnfPBEh0-3" target="hWJkc-l-R1TcZnfPBEh0-2" edge="1">
          <mxGeometry width="50" height="50" relative="1" as="geometry">
            <mxPoint x="268" as="sourcePoint" />
            <mxPoint x="239" y="61" as="targetPoint" />
          </mxGeometry>
        </mxCell>
        <mxCell id="hWJkc-l-R1TcZnfPBEh0-7" value="Add to Buffer" style="edgeLabel;html=1;align=center;verticalAlign=middle;resizable=0;points=[];fontSize=12;" parent="hWJkc-l-R1TcZnfPBEh0-6" vertex="1" connectable="0">
          <mxGeometry x="-0.2471" y="1" relative="1" as="geometry">
            <mxPoint as="offset" />
          </mxGeometry>
        </mxCell>
        <mxCell id="hWJkc-l-R1TcZnfPBEh0-8" value="" style="endArrow=classic;html=1;rounded=0;fontSize=12;startSize=8;endSize=8;curved=1;exitX=0;exitY=0.75;exitDx=0;exitDy=0;entryX=1;entryY=0.75;entryDx=0;entryDy=0;" parent="1" source="hWJkc-l-R1TcZnfPBEh0-3" target="hWJkc-l-R1TcZnfPBEh0-1" edge="1">
          <mxGeometry width="50" height="50" relative="1" as="geometry">
            <mxPoint x="63" y="88" as="sourcePoint" />
            <mxPoint x="254" y="88" as="targetPoint" />
          </mxGeometry>
        </mxCell>
        <mxCell id="hWJkc-l-R1TcZnfPBEh0-9" value="Ruturn Buffer" style="edgeLabel;html=1;align=center;verticalAlign=middle;resizable=0;points=[];fontSize=12;" parent="hWJkc-l-R1TcZnfPBEh0-8" vertex="1" connectable="0">
          <mxGeometry x="-0.2471" y="1" relative="1" as="geometry">
            <mxPoint as="offset" />
          </mxGeometry>
        </mxCell>
        <mxCell id="hWJkc-l-R1TcZnfPBEh0-10" value="" style="rounded=0;whiteSpace=wrap;html=1;" parent="1" vertex="1">
          <mxGeometry x="-65" y="110" width="120" height="60" as="geometry" />
        </mxCell>
        <mxCell id="hWJkc-l-R1TcZnfPBEh0-11" value="" style="endArrow=classic;html=1;rounded=0;fontSize=12;startSize=8;endSize=8;curved=1;exitX=0.167;exitY=0.95;exitDx=0;exitDy=0;entryX=0.158;entryY=0.033;entryDx=0;entryDy=0;exitPerimeter=0;entryPerimeter=0;" parent="1" source="hWJkc-l-R1TcZnfPBEh0-1" target="hWJkc-l-R1TcZnfPBEh0-10" edge="1">
          <mxGeometry width="50" height="50" relative="1" as="geometry">
            <mxPoint x="-14" y="53" as="sourcePoint" />
            <mxPoint x="177" y="53" as="targetPoint" />
          </mxGeometry>
        </mxCell>
        <mxCell id="hWJkc-l-R1TcZnfPBEh0-12" value="Read Instruction" style="edgeLabel;html=1;align=center;verticalAlign=middle;resizable=0;points=[];fontSize=12;" parent="hWJkc-l-R1TcZnfPBEh0-11" vertex="1" connectable="0">
          <mxGeometry x="-0.2471" y="1" relative="1" as="geometry">
            <mxPoint as="offset" />
          </mxGeometry>
        </mxCell>
      </root>
    </mxGraphModel>
  </diagram>
</mxfile>
